<svg width="30" height="32" viewBox="0 0 30 32" fill="none" xmlns="http://www.w3.org/2000/svg">
<path d="M15.8892 5.67546C15.8892 5.67546 16.1673 5.17879 15.6211 2.24479L16.4492 1.75879C16.4492 1.75879 17.1023 4.05946 16.4142 5.75879L15.8892 5.67546Z" fill="#0970E6"/>
<path d="M16.1797 5.70766C16.5846 4.12296 16.7653 2.48264 16.7159 0.840992L17.8022 0.666992C17.8022 0.666992 17.7397 4.60033 16.6147 5.81766L16.1797 5.70766Z" fill="#058567"/>
<path d="M18.1799 2.09277L19.1924 2.42144C19.1924 2.42144 18.1705 5.42811 16.5474 5.93811L16.1387 5.68477C17.0836 4.68299 17.7844 3.4498 18.1799 2.09277Z" fill="#058567"/>
<path d="M14.3456 6.19543C13.8489 7.43942 13.5088 8.74814 13.3344 10.0874C13.1194 11.4048 12.9306 13.7714 13.3475 13.9374C13.785 14.1114 15.5125 11.9988 15.7094 11.6868C16.5552 10.4066 17.253 9.02211 17.7875 7.56343C17.8948 7.32062 17.9519 7.05604 17.9549 6.78764C17.9578 6.51923 17.9067 6.25328 17.8048 6.00782C17.703 5.76236 17.5529 5.54313 17.3646 5.365C17.1764 5.18688 16.9544 5.05402 16.7138 4.97543C15.6188 4.52477 14.7644 5.23743 14.3456 6.19543Z" fill="#FF8000"/>
<path opacity="0.3" d="M17.2749 5.74554C16.4305 5.30753 16.0249 6.8742 16.8474 7.2582C17.6855 7.64954 18.1124 6.1802 17.2749 5.74554Z" fill="white"/>
<path opacity="0.2" d="M14.8362 5.41211C15.1329 5.84597 15.5532 6.16588 16.0343 6.32411C16.0757 6.3364 16.1109 6.36574 16.1321 6.40569C16.1532 6.44563 16.1586 6.49291 16.1471 6.53711C16.1356 6.58131 16.1081 6.61882 16.0706 6.64139C16.0332 6.66396 15.9889 6.66973 15.9474 6.65744C15.9368 6.65518 15.9264 6.65206 15.9162 6.64811C15.4037 6.47629 14.9561 6.13433 14.6387 5.67211L14.8362 5.41211Z" fill="#303336"/>
<path opacity="0.2" d="M14.1077 6.79102C14.3726 7.21411 14.7698 7.52313 15.2284 7.66302C15.2698 7.67522 15.305 7.70447 15.3262 7.74436C15.3474 7.78424 15.3529 7.83148 15.3415 7.87568C15.33 7.91989 15.3026 7.95743 15.2652 7.98006C15.2278 8.00269 15.1836 8.00855 15.1421 7.99635C15.1315 7.99426 15.121 7.99113 15.1109 7.98702C14.2634 7.63235 14.0777 7.34435 13.9746 7.16702L14.1077 6.79102Z" fill="#303336"/>
<path opacity="0.2" d="M13.5762 8.80147C13.8009 9.00461 14.0596 9.16068 14.3387 9.26147C14.3468 9.26476 14.3551 9.26721 14.3637 9.26881C14.3962 9.27844 14.4309 9.27392 14.4603 9.25623C14.4896 9.23854 14.5112 9.20913 14.5202 9.17447C14.5293 9.13982 14.525 9.10276 14.5084 9.07144C14.4919 9.04012 14.4643 9.01711 14.4318 9.00747C14.1366 8.89643 13.8659 8.72169 13.6368 8.49414L13.5762 8.80147Z" fill="#303336"/>
<path d="M14.7907 31.4941C21.8365 31.4941 27.5482 30.7204 27.5482 29.7661C27.5482 28.8117 21.8365 28.0381 14.7907 28.0381C7.74493 28.0381 2.0332 28.8117 2.0332 29.7661C2.0332 30.7204 7.74493 31.4941 14.7907 31.4941Z" fill="#F7F7F7" fill-opacity="0.1"/>
<path d="M27.3255 19.736L21.0642 14.4507C20.7011 14.138 20.2961 14.2207 19.7192 14.1933L18.038 14.1533C17.6128 14.1547 17.2054 14.3356 16.9047 14.6563C16.6041 14.9771 16.4347 15.4118 16.4336 15.8653V26.7907H26.7973C27.0349 26.7907 27.2628 26.69 27.4309 26.5109C27.5989 26.3317 27.6934 26.0888 27.6936 25.8353V20.508C27.6935 20.3575 27.6602 20.2091 27.5962 20.075C27.5322 19.9408 27.4395 19.8247 27.3255 19.736Z" fill="#C20016"/>
<path opacity="0.4" d="M27.3255 19.736L21.0642 14.4507C20.6667 14.1313 20.4111 14.2167 19.7192 14.1933L18.038 14.1533C17.6128 14.1547 17.2054 14.3356 16.9047 14.6563C16.6041 14.9771 16.4347 15.4118 16.4336 15.8653V26.7907H26.7973C27.0349 26.7907 27.2628 26.69 27.4309 26.5109C27.5989 26.3317 27.6934 26.0888 27.6936 25.8353V20.508C27.6935 20.3575 27.6602 20.2091 27.5962 20.075C27.5322 19.9408 27.4395 19.8247 27.3255 19.736Z" fill="url(#paint0_linear_1014_45732)"/>
<path d="M21.8633 16.208C21.7183 16.0797 21.5561 15.9754 21.382 15.8987C21.0935 15.7811 20.7872 15.7208 20.4783 15.7207H19.5083C19.4408 15.7209 19.3761 15.7496 19.3284 15.8006C19.2807 15.8516 19.2539 15.9207 19.2539 15.9927V19.7974C19.2537 19.8686 19.2799 19.937 19.3267 19.9878C19.3735 20.0386 19.4372 20.0676 19.5039 20.0687L23.8714 20.096C24.0639 20.0973 24.2518 20.0335 24.4082 19.9139C24.5646 19.7943 24.6815 19.625 24.7422 19.4301C24.8029 19.2353 24.8043 19.025 24.7461 18.8293C24.6879 18.6336 24.5732 18.4626 24.4183 18.3407L21.8633 16.208Z" fill="white"/>
<path d="M17.4995 23.7559H2.69578C2.3223 23.7559 2.01953 24.0788 2.01953 24.4772V26.0519C2.01953 26.4502 2.3223 26.7732 2.69578 26.7732H17.4995C17.873 26.7732 18.1758 26.4502 18.1758 26.0519V24.4772C18.1758 24.0788 17.873 23.7559 17.4995 23.7559Z" fill="#C20016"/>
<path d="M17.0139 23.1906H3.27578C3.19539 23.1906 3.11829 23.1565 3.06144 23.0959C3.00459 23.0353 2.97266 22.953 2.97266 22.8673C2.97266 22.7815 3.00459 22.6993 3.06144 22.6386C3.11829 22.578 3.19539 22.5439 3.27578 22.5439H17.0139C17.0943 22.5439 17.1714 22.578 17.2282 22.6386C17.2851 22.6993 17.317 22.7815 17.317 22.8673C17.317 22.953 17.2851 23.0353 17.2282 23.0959C17.1714 23.1565 17.0943 23.1906 17.0139 23.1906Z" fill="#C20016"/>
<path d="M17.0139 21.6867H3.27578C3.19539 21.6867 3.11829 21.6526 3.06144 21.592C3.00459 21.5314 2.97266 21.4491 2.97266 21.3634C2.97266 21.2776 3.00459 21.1954 3.06144 21.1347C3.11829 21.0741 3.19539 21.04 3.27578 21.04H17.0139C17.0943 21.04 17.1714 21.0741 17.2282 21.1347C17.2851 21.1954 17.317 21.2776 17.317 21.3634C17.317 21.4491 17.2851 21.5314 17.2282 21.592C17.1714 21.6526 17.0943 21.6867 17.0139 21.6867Z" fill="#C20016"/>
<path d="M17.0144 20.1092H3.2763C3.19821 20.1055 3.12449 20.0697 3.07048 20.0094C3.01647 19.9491 2.98633 19.869 2.98633 19.7856C2.98633 19.7022 3.01647 19.622 3.07048 19.5617C3.12449 19.5014 3.19821 19.4657 3.2763 19.4619H17.0144C17.0925 19.4657 17.1662 19.5014 17.2203 19.5617C17.2743 19.622 17.3044 19.7022 17.3044 19.7856C17.3044 19.869 17.2743 19.9491 17.2203 20.0094C17.1662 20.0697 17.0925 20.1055 17.0144 20.1092Z" fill="#C20016"/>
<path d="M1.88281 23.7939H18.2009V26.7939H2.60906C2.41688 26.7939 2.23253 26.7127 2.09641 26.568C1.96028 26.4233 1.88347 26.2269 1.88281 26.0219V23.7939Z" fill="#303336"/>
<path d="M1.875 25.7725H18.2019V26.7965H2.44313C2.29245 26.7965 2.14794 26.7326 2.0414 26.619C1.93486 26.5053 1.875 26.3512 1.875 26.1905V25.7725Z" fill="#D2D2D2"/>
<path d="M18.2115 15.9414H17.584V24.7721H18.2115V15.9414Z" fill="#303336"/>
<path d="M15.8674 9.74805H2.18742C2.03106 9.74805 1.9043 9.88326 1.9043 10.05V23.54C1.9043 23.7068 2.03106 23.842 2.18742 23.842H15.8674C16.0238 23.842 16.1505 23.7068 16.1505 23.54V10.05C16.1505 9.88326 16.0238 9.74805 15.8674 9.74805Z" fill="#AD8764"/>
<path d="M3.61953 8.68066H17.3533C17.4212 8.68066 17.4864 8.70946 17.5345 8.76072C17.5825 8.81198 17.6095 8.8815 17.6095 8.954V23.902H3.61953C3.55157 23.902 3.48639 23.8732 3.43834 23.8219C3.39028 23.7707 3.36328 23.7012 3.36328 23.6287V8.954C3.36328 8.8815 3.39028 8.81198 3.43834 8.76072C3.48639 8.70946 3.55157 8.68066 3.61953 8.68066V8.68066Z" fill="#C7A984"/>
<path d="M13.0206 6.9984H6.5L8.03188 5.17773H11.8613L13.0206 6.9984Z" fill="#AD8764"/>
<path d="M6.36914 9.07542H8.01039L8.02914 5.17676L6.36914 6.76476V9.07542Z" fill="#C7A984"/>
<path d="M13.5057 9.0764H11.8651L11.8613 5.17773L13.5063 6.76573L13.5057 9.0764Z" fill="#C7A984"/>
<path d="M6.59617 29.4405C7.98793 29.4405 9.11617 28.237 9.11617 26.7525C9.11617 25.2679 7.98793 24.0645 6.59617 24.0645C5.20441 24.0645 4.07617 25.2679 4.07617 26.7525C4.07617 28.237 5.20441 29.4405 6.59617 29.4405Z" fill="#303336"/>
<path d="M6.59625 28.2888C7.39154 28.2888 8.03625 27.6011 8.03625 26.7528C8.03625 25.9045 7.39154 25.2168 6.59625 25.2168C5.80096 25.2168 5.15625 25.9045 5.15625 26.7528C5.15625 27.6011 5.80096 28.2888 6.59625 28.2888Z" fill="white"/>
<path d="M6.59484 27.491C6.9773 27.491 7.28734 27.1603 7.28734 26.7523C7.28734 26.3444 6.9773 26.0137 6.59484 26.0137C6.21239 26.0137 5.90234 26.3444 5.90234 26.7523C5.90234 27.1603 6.21239 27.491 6.59484 27.491Z" fill="#E5E5E5"/>
<path d="M23.6919 29.4405C25.0836 29.4405 26.2119 28.237 26.2119 26.7525C26.2119 25.2679 25.0836 24.0645 23.6919 24.0645C22.3001 24.0645 21.1719 25.2679 21.1719 26.7525C21.1719 28.237 22.3001 29.4405 23.6919 29.4405Z" fill="#303336"/>
<path d="M23.692 28.2888C24.4872 28.2888 25.132 27.6011 25.132 26.7528C25.132 25.9045 24.4872 25.2168 23.692 25.2168C22.8967 25.2168 22.252 25.9045 22.252 26.7528C22.252 27.6011 22.8967 28.2888 23.692 28.2888Z" fill="white"/>
<path d="M23.6905 27.491C24.073 27.491 24.383 27.1603 24.383 26.7523C24.383 26.3444 24.073 26.0137 23.6905 26.0137C23.3081 26.0137 22.998 26.3444 22.998 26.7523C22.998 27.1603 23.3081 27.491 23.6905 27.491Z" fill="#E5E5E5"/>
<path d="M17.4491 24.0079L1.89844 23.9032V23.5092L17.4484 23.6139C17.4913 23.6135 17.5323 23.5953 17.5628 23.5632C17.5931 23.5308 17.6102 23.487 17.6103 23.4412V14.1445H17.9797V23.4412C17.9798 23.5157 17.9662 23.5894 17.9396 23.6583C17.9129 23.7271 17.8738 23.7896 17.8245 23.8423C17.7751 23.8949 17.7165 23.9367 17.6519 23.9651C17.5874 23.9935 17.5182 24.008 17.4484 24.0079H17.4491Z" fill="white"/>
<path d="M8.54406 13.6633L6.05407 16.232C5.99117 16.2825 5.94013 16.348 5.90499 16.4232C5.86985 16.4984 5.85156 16.5813 5.85156 16.6653C5.85156 16.7493 5.86985 16.8322 5.90499 16.9074C5.94013 16.9826 5.99117 17.048 6.05407 17.0986L8.54406 19.6673C8.54952 19.6743 8.55628 19.6801 8.56392 19.6842C8.57155 19.6883 8.5799 19.6907 8.58844 19.6913C8.59412 19.691 8.59967 19.6894 8.60476 19.6867C8.60985 19.684 8.61437 19.6803 8.61806 19.6756C8.62174 19.671 8.62451 19.6657 8.62618 19.6599C8.62786 19.6541 8.62842 19.648 8.62781 19.642C8.62642 19.623 8.61865 19.6053 8.60594 19.592C7.94912 18.7816 7.59044 17.7445 7.59656 16.6733C7.5913 15.5978 7.94966 14.5564 8.60594 13.74C8.61865 13.7267 8.62642 13.7089 8.62781 13.69C8.62851 13.6839 8.62802 13.6778 8.62638 13.6719C8.62474 13.6661 8.62198 13.6607 8.61828 13.6561C8.61458 13.6514 8.61001 13.6477 8.60488 13.645C8.59974 13.6423 8.59415 13.6409 8.58844 13.6406C8.5799 13.6412 8.57155 13.6436 8.56392 13.6477C8.55628 13.6518 8.54952 13.6576 8.54406 13.6646" fill="#AD8764"/>
<path d="M10.4572 13.4453C9.48281 13.4453 9.10156 14.9193 9.10156 16.6753C9.10156 18.4313 9.48281 19.8866 10.4572 19.8866C11.0428 19.8866 11.5409 19.5206 11.5428 19.22C11.5425 19.1855 11.5358 19.1515 11.5229 19.1198C11.51 19.0882 11.4913 19.0597 11.4678 19.036C11.3542 18.9341 11.2613 18.8085 11.1947 18.6669C11.1282 18.5253 11.0895 18.3707 11.0809 18.2126C11.0822 17.9972 11.1606 17.7903 11.2999 17.6344C11.4393 17.4784 11.6292 17.385 11.8309 17.3733C11.9433 17.3748 12.0541 17.4014 12.1563 17.4514C12.2584 17.5013 12.3496 17.5736 12.4239 17.6635C12.4982 17.7534 12.554 17.8589 12.5878 17.9733C12.6215 18.0876 12.6324 18.2082 12.6197 18.3273C12.6052 18.7892 12.4565 19.2349 12.1941 19.6026C12.186 19.6155 12.1816 19.6305 12.1816 19.646C12.181 19.6518 12.1814 19.6576 12.183 19.6632C12.1845 19.6688 12.187 19.674 12.1905 19.6785C12.1939 19.6831 12.1981 19.6868 12.2029 19.6896C12.2077 19.6923 12.213 19.6941 12.2184 19.6946C12.2364 19.6925 12.2529 19.6833 12.2647 19.6686L14.7547 17.1C14.8176 17.0494 14.8686 16.9839 14.9038 16.9087C14.9389 16.8335 14.9572 16.7507 14.9572 16.6666C14.9572 16.5826 14.9389 16.4998 14.9038 16.4246C14.8686 16.3494 14.8176 16.2839 14.7547 16.2333L12.2634 13.6626C12.2517 13.6481 12.2351 13.639 12.2172 13.6373C12.2117 13.6378 12.2064 13.6395 12.2016 13.6422C12.1967 13.645 12.1925 13.6487 12.189 13.6533C12.1856 13.6578 12.183 13.663 12.1815 13.6687C12.18 13.6743 12.1796 13.6802 12.1803 13.686C12.1805 13.7014 12.1849 13.7164 12.1928 13.7293C12.4552 14.0968 12.604 14.5423 12.6184 15.004C12.6311 15.1231 12.6202 15.2437 12.5865 15.358C12.5528 15.4724 12.497 15.5779 12.4226 15.6678C12.3483 15.7577 12.2571 15.8299 12.155 15.8799C12.0529 15.9299 11.942 15.9565 11.8297 15.958C11.6279 15.9464 11.4379 15.8531 11.2985 15.6971C11.1591 15.5411 11.0808 15.3342 11.0797 15.1186C11.0882 14.9605 11.127 14.806 11.1935 14.6644C11.26 14.5228 11.3529 14.3972 11.4666 14.2953C11.49 14.2717 11.5087 14.2433 11.5216 14.2118C11.5345 14.1803 11.5413 14.1463 11.5416 14.112C11.5416 13.8113 11.0416 13.4453 10.4559 13.4453" fill="#AD8764"/>
<defs>
<linearGradient id="paint0_linear_1014_45732" x1="16.4336" y1="20.472" x2="27.6936" y2="20.472" gradientUnits="userSpaceOnUse">
<stop stop-color="white" stop-opacity="0"/>
<stop offset="1" stop-color="white"/>
</linearGradient>
</defs>
</svg>
