<svg width="33" height="33" viewBox="0 0 33 33" fill="none" xmlns="http://www.w3.org/2000/svg">
<g style="mix-blend-mode:luminosity">
<path d="M6.98532 13.8953H5.16132C4.89103 13.8941 4.62755 13.8104 4.40601 13.6556C4.18447 13.5008 4.01539 13.2821 3.92132 13.0287C3.86467 13.1752 3.83508 13.3309 3.83398 13.488C3.83556 13.8396 3.97591 14.1763 4.2245 14.4248C4.47308 14.6734 4.80977 14.8138 5.16132 14.8153H6.98532C7.33709 14.8138 7.67399 14.6732 7.92261 14.4244C8.17123 14.1755 8.31142 13.8385 8.31265 13.4867C8.31155 13.3295 8.28196 13.1739 8.22532 13.0273C8.13146 13.281 7.96248 13.5 7.74092 13.6551C7.51936 13.8102 7.25576 13.894 6.98532 13.8953Z" fill="#303336"/>
<path d="M5.16188 13.8954H6.98588C7.25616 13.8942 7.51964 13.8105 7.74118 13.6557C7.96273 13.5009 8.1318 13.2822 8.22587 13.0288C8.13189 12.7753 7.96283 12.5566 7.74127 12.4017C7.51971 12.2469 7.25619 12.1633 6.98588 12.1621H5.16188C4.89157 12.1633 4.62804 12.2469 4.40648 12.4017C4.18492 12.5566 4.01586 12.7753 3.92188 13.0288C4.01595 13.2822 4.18502 13.5009 4.40657 13.6557C4.62811 13.8105 4.89159 13.8942 5.16188 13.8954Z" fill="#303336"/>
<path opacity="0.4" d="M5.16188 13.8954H6.98588C7.25616 13.8942 7.51964 13.8105 7.74118 13.6557C7.96273 13.5009 8.1318 13.2822 8.22587 13.0288C8.13189 12.7753 7.96283 12.5566 7.74127 12.4017C7.51971 12.2469 7.25619 12.1633 6.98588 12.1621H5.16188C4.89157 12.1633 4.62804 12.2469 4.40648 12.4017C4.18492 12.5566 4.01586 12.7753 3.92188 13.0288C4.01595 13.2822 4.18502 13.5009 4.40657 13.6557C4.62811 13.8105 4.89159 13.8942 5.16188 13.8954Z" fill="url(#paint0_linear_1013_44854)"/>
<path d="M28.3974 13.896H26.5734C26.3031 13.8947 26.0397 13.8111 25.8181 13.6562C25.5966 13.5014 25.4275 13.2827 25.3334 13.0293C25.2768 13.1759 25.2472 13.3315 25.2461 13.4886C25.2477 13.8402 25.388 14.1769 25.6366 14.4255C25.8852 14.674 26.2219 14.8144 26.5734 14.816H28.3974C28.749 14.8144 29.0857 14.674 29.3342 14.4255C29.5828 14.1769 29.7232 13.8402 29.7248 13.4886C29.7237 13.3315 29.6941 13.1759 29.6374 13.0293C29.5434 13.2827 29.3743 13.5014 29.1527 13.6562C28.9312 13.8111 28.6677 13.8947 28.3974 13.896Z" fill="#303336"/>
<path d="M26.574 13.8954H28.398C28.6683 13.8942 28.9317 13.8105 29.1533 13.6557C29.3748 13.5009 29.5439 13.2822 29.638 13.0288C29.544 12.7753 29.3749 12.5566 29.1534 12.4017C28.9318 12.2469 28.6683 12.1633 28.398 12.1621H26.574C26.3037 12.1633 26.0402 12.2469 25.8186 12.4017C25.597 12.5566 25.428 12.7753 25.334 13.0288C25.4281 13.2822 25.5971 13.5009 25.8187 13.6557C26.0402 13.8105 26.3037 13.8942 26.574 13.8954Z" fill="#303336"/>
<path opacity="0.4" d="M26.574 13.8954H28.398C28.6683 13.8942 28.9317 13.8105 29.1533 13.6557C29.3748 13.5009 29.5439 13.2822 29.638 13.0288C29.544 12.7753 29.3749 12.5566 29.1534 12.4017C28.9318 12.2469 28.6683 12.1633 28.398 12.1621H26.574C26.3037 12.1633 26.0402 12.2469 25.8186 12.4017C25.597 12.5566 25.428 12.7753 25.334 13.0288C25.4281 13.2822 25.5971 13.5009 25.8187 13.6557C26.0402 13.8105 26.3037 13.8942 26.574 13.8954Z" fill="url(#paint1_linear_1013_44854)"/>
<path opacity="0.1" d="M16.5782 31.6492C23.4364 31.6492 28.9962 30.6559 28.9962 29.4306C28.9962 28.2052 23.4364 27.2119 16.5782 27.2119C9.71988 27.2119 4.16016 28.2052 4.16016 29.4306C4.16016 30.6559 9.71988 31.6492 16.5782 31.6492Z" fill="#121212"/>
<path d="M17.9314 10.127C18.0012 10.3795 18.04 10.6397 18.0468 10.9016C18.0559 11.0994 18.0485 11.2977 18.0248 11.4943C18.0011 11.6876 17.9646 11.8792 17.9154 12.0676C17.8747 12.263 17.8007 12.4499 17.6968 12.6203L17.3848 12.513C17.5181 12.3796 17.4928 12.1536 17.5241 11.9796C17.5576 11.8061 17.5799 11.6306 17.5908 11.4543C17.6026 11.2815 17.6004 11.108 17.5841 10.9356C17.572 10.7733 17.5356 10.6138 17.4761 10.4623L17.9314 10.127Z" fill="#058567"/>
<g style="mix-blend-mode:multiply" opacity="0.19">
<g style="mix-blend-mode:multiply" opacity="0.19">
<path d="M17.6074 12.5896C17.6649 12.4245 17.6977 12.2517 17.7047 12.077C17.7424 11.8832 17.7676 11.6873 17.7801 11.4903C17.7954 11.2975 17.7954 11.1038 17.7801 10.911C17.7682 10.7305 17.7296 10.5527 17.6654 10.3836L17.9467 10.171C17.9421 10.1563 17.9374 10.1403 17.9327 10.127L17.4781 10.4603C17.5375 10.6118 17.5739 10.7713 17.5861 10.9336C17.6023 11.106 17.6045 11.2795 17.5927 11.4523C17.5818 11.6286 17.5595 11.8041 17.5261 11.9776C17.4947 12.151 17.5221 12.3776 17.3867 12.511L17.6074 12.5896Z" fill="#058567"/>
</g>
</g>
<g style="mix-blend-mode:multiply" opacity="0.25">
<g style="mix-blend-mode:multiply" opacity="0.25">
<path d="M17.4627 12.5256C17.5961 12.3923 17.5701 12.1656 17.6021 11.9923C17.6355 11.819 17.6578 11.6438 17.6687 11.4676C17.6805 11.2948 17.6783 11.1214 17.6621 10.949C17.6494 10.7867 17.6128 10.6272 17.5534 10.4756L17.9501 10.1823C17.9447 10.1636 17.9394 10.1443 17.9327 10.127L17.4781 10.4603C17.5375 10.6118 17.5739 10.7713 17.5861 10.9336C17.6023 11.106 17.6045 11.2795 17.5927 11.4523C17.5818 11.6286 17.5595 11.8041 17.5261 11.9776C17.4947 12.151 17.5221 12.3776 17.3867 12.511L17.6987 12.6183L17.7061 12.607L17.4627 12.5256Z" fill="#058567"/>
</g>
</g>
<path d="M18.8497 9.64746C18.8509 9.92495 18.823 10.2018 18.7664 10.4735C18.7136 10.7366 18.6469 10.9968 18.5664 11.2528C18.4865 11.508 18.3937 11.759 18.2884 12.0048C18.1904 12.2643 18.049 12.5053 17.8704 12.7175L17.5684 12.5021C17.6637 12.2928 17.7684 12.0675 17.857 11.8355C17.9457 11.6035 18.0164 11.3601 18.079 11.1168C18.1432 10.8752 18.1948 10.6304 18.2337 10.3835C18.2754 10.1463 18.2933 9.90553 18.287 9.66479L18.8497 9.64746Z" fill="#058567"/>
<g style="mix-blend-mode:multiply" opacity="0.13">
<g style="mix-blend-mode:multiply" opacity="0.13">
<path d="M17.7963 12.6623L17.751 12.6296C17.851 12.4089 17.9643 12.1716 18.0536 11.9249C18.1447 11.6769 18.223 11.4243 18.2883 11.1682C18.3561 10.9138 18.4111 10.6562 18.453 10.3963C18.4963 10.152 18.5162 9.90424 18.5123 9.65625L18.289 9.66225C18.2952 9.90299 18.2774 10.1437 18.2356 10.3809C18.1967 10.6279 18.1451 10.8726 18.081 11.1143C18.0183 11.3576 17.9476 11.5989 17.859 11.8329C17.7703 12.0669 17.6656 12.2929 17.5703 12.4996L17.7963 12.6623Z" fill="#058567"/>
</g>
</g>
<g style="mix-blend-mode:multiply" opacity="0.4">
<g style="mix-blend-mode:multiply" opacity="0.4">
<path d="M17.6337 12.5241C17.729 12.3147 17.8337 12.0887 17.9217 11.8574C18.0097 11.6261 18.0817 11.3821 18.145 11.1387C18.2087 10.8971 18.2601 10.6523 18.299 10.4054C18.3408 10.1685 18.3587 9.92793 18.3524 9.68741L18.8484 9.67408C18.8484 9.66541 18.8484 9.65741 18.8484 9.64941L18.287 9.66475C18.2933 9.90548 18.2754 10.1462 18.2337 10.3834C18.1948 10.6304 18.1432 10.8751 18.079 11.1167C18.0164 11.3601 17.9457 11.6014 17.857 11.8354C17.7684 12.0694 17.6637 12.2954 17.5684 12.5021L17.8704 12.7174L17.883 12.7027L17.6337 12.5241Z" fill="#058567"/>
</g>
</g>
<path d="M19.4832 10.9019C19.4301 11.1122 19.3439 11.3127 19.2279 11.4959C19.1178 11.6702 18.9909 11.8335 18.8492 11.9832C18.7096 12.1302 18.5587 12.2659 18.3979 12.3892C18.2383 12.5248 18.0537 12.6279 17.8546 12.6926L17.5879 12.5766C17.7159 12.4726 17.9846 12.1686 18.1166 12.0499C18.2505 11.9321 18.3747 11.8037 18.4879 11.6659C18.6009 11.5328 18.7007 11.389 18.7859 11.2366C18.8682 11.0949 18.928 10.9413 18.9632 10.7812L19.4832 10.9019Z" fill="#058567"/>
<g style="mix-blend-mode:multiply" opacity="0.12">
<g style="mix-blend-mode:multiply" opacity="0.12">
<path d="M18.2712 12.0963C18.4117 11.9679 18.542 11.8288 18.6612 11.6803C18.7796 11.5364 18.8847 11.382 18.9752 11.219C19.0456 11.0924 19.1013 10.9582 19.1412 10.819L18.9652 10.7783C18.93 10.9384 18.8701 11.092 18.7878 11.2337C18.7027 11.3861 18.6029 11.5299 18.4898 11.663C18.3766 11.8008 18.2524 11.9292 18.1185 12.047C17.9852 12.1657 17.7185 12.4697 17.5898 12.5737L17.7432 12.6403C17.8852 12.5137 18.1412 12.2177 18.2712 12.0963Z" fill="#058567"/>
</g>
</g>
<g style="mix-blend-mode:multiply" opacity="0.23">
<g style="mix-blend-mode:multiply" opacity="0.23">
<path d="M17.6279 12.5899C17.7559 12.4866 18.0246 12.1826 18.1566 12.0632C18.2905 11.9453 18.4149 11.8169 18.5286 11.6792C18.6411 11.5462 18.7407 11.4026 18.8259 11.2506C18.9087 11.1088 18.9687 10.9549 19.0039 10.7946L19.4826 10.9066V10.9019L18.9632 10.7812C18.928 10.9413 18.8682 11.0949 18.7859 11.2366C18.7007 11.389 18.6009 11.5328 18.4879 11.6659C18.3747 11.8037 18.2505 11.9321 18.1166 12.0499C17.9832 12.1686 17.7166 12.4726 17.5879 12.5766L17.8546 12.6926H17.8592L17.6279 12.5899Z" fill="#058567"/>
</g>
</g>
<path d="M7.84058 22.1895H7.18392C6.1331 22.1895 5.28125 23.0413 5.28125 24.0921V27.4755C5.28125 28.5263 6.1331 29.3781 7.18392 29.3781H7.84058C8.8914 29.3781 9.74325 28.5263 9.74325 27.4755V24.0921C9.74325 23.0413 8.8914 22.1895 7.84058 22.1895Z" fill="#303336"/>
<path opacity="0.4" d="M7.83658 23.0312H7.18792C6.13489 23.0312 5.28125 23.8849 5.28125 24.9379V26.1306C5.28125 27.1836 6.13489 28.0373 7.18792 28.0373H7.83658C8.88961 28.0373 9.74325 27.1836 9.74325 26.1306V24.9379C9.74325 23.8849 8.88961 23.0312 7.83658 23.0312Z" fill="url(#paint2_linear_1013_44854)"/>
<path d="M26.075 22.1895H25.4183C24.3675 22.1895 23.5156 23.0413 23.5156 24.0921V27.4755C23.5156 28.5263 24.3675 29.3781 25.4183 29.3781H26.075C27.1258 29.3781 27.9776 28.5263 27.9776 27.4755V24.0921C27.9776 23.0413 27.1258 22.1895 26.075 22.1895Z" fill="#303336"/>
<path opacity="0.4" d="M26.071 23.0312H25.4223C24.3693 23.0312 23.5156 23.8849 23.5156 24.9379V26.1306C23.5156 27.1836 24.3693 28.0372 25.4223 28.0372H26.071C27.124 28.0372 27.9776 27.1836 27.9776 26.1306V24.9379C27.9776 23.8849 27.124 23.0312 26.071 23.0312Z" fill="url(#paint3_linear_1013_44854)"/>
<path d="M28.8403 23.0967V17.942C28.8404 17.632 28.7902 17.324 28.6917 17.03L26.2683 9.80468C26.077 9.23428 25.7112 8.73841 25.2228 8.38708C24.7344 8.03575 24.148 7.84672 23.5463 7.84668H10.1463C9.54478 7.84676 8.95845 8.03582 8.47015 8.38715C7.98185 8.73848 7.61626 9.23433 7.42501 9.80468L4.91301 17.2913C4.81429 17.5855 4.76386 17.8937 4.76367 18.204L4.76367 23.0973C4.76367 23.8587 5.06612 24.5889 5.60447 25.1272C6.14283 25.6656 6.87299 25.968 7.63434 25.968H25.9677C26.3449 25.9683 26.7184 25.8942 27.067 25.75C27.4156 25.6058 27.7323 25.3943 27.9991 25.1277C28.2659 24.861 28.4775 24.5444 28.6218 24.1959C28.7662 23.8474 28.8404 23.4739 28.8403 23.0967Z" fill="#C20016"/>
<path opacity="0.4" d="M28.8381 22.5307V18.0241C28.8463 17.7025 28.8015 17.3818 28.7054 17.0747L26.2694 9.80808C26.0841 9.24443 25.7276 8.7526 25.2497 8.40106C24.7717 8.04951 24.196 7.85575 23.6028 7.84675H11.6228C11.0222 7.84268 10.4356 8.02783 9.94613 8.37593C9.45671 8.72404 9.08932 9.21742 8.89609 9.78608L6.25609 17.4001C6.15747 17.6943 6.10726 18.0025 6.10742 18.3127L6.10742 22.5207C6.10742 22.8978 6.1817 23.2711 6.326 23.6195C6.47031 23.9678 6.68182 24.2843 6.94846 24.5508C7.21509 24.8174 7.53163 25.0289 7.87999 25.1731C8.22836 25.3173 8.60172 25.3915 8.97876 25.3914H25.9994C26.3742 25.392 26.7454 25.3182 27.0915 25.1743C27.4376 25.0305 27.7517 24.8194 28.0157 24.5534C28.2797 24.2874 28.4883 23.9716 28.6294 23.6244C28.7706 23.2773 28.8415 22.9055 28.8381 22.5307Z" fill="url(#paint4_linear_1013_44854)"/>
<path d="M6.65734 16.9229H6.03001C5.7524 16.9229 5.52734 17.1479 5.52734 17.4255V19.7935C5.52734 20.0711 5.7524 20.2962 6.03001 20.2962H6.65734C6.93496 20.2962 7.16001 20.0711 7.16001 19.7935V17.4255C7.16001 17.1479 6.93496 16.9229 6.65734 16.9229Z" fill="#C20016"/>
<path opacity="0.3" d="M6.34401 16.9229H6.34334C5.89268 16.9229 5.52734 17.2882 5.52734 17.7389V19.4802C5.52734 19.9308 5.89268 20.2962 6.34334 20.2962H6.34401C6.79467 20.2962 7.16001 19.9308 7.16001 19.4802V17.7389C7.16001 17.2882 6.79467 16.9229 6.34401 16.9229Z" fill="#303336"/>
<path d="M27.4573 16.9229H27.4566C27.006 16.9229 26.6406 17.2882 26.6406 17.7389V19.4802C26.6406 19.9308 27.006 20.2962 27.4566 20.2962H27.4573C27.908 20.2962 28.2733 19.9308 28.2733 19.4802V17.7389C28.2733 17.2882 27.908 16.9229 27.4573 16.9229Z" fill="#C20016"/>
<path opacity="0.3" d="M27.4573 16.9229H27.4566C27.006 16.9229 26.6406 17.2882 26.6406 17.7389V19.4802C26.6406 19.9308 27.006 20.2962 27.4566 20.2962H27.4573C27.908 20.2962 28.2733 19.9308 28.2733 19.4802V17.7389C28.2733 17.2882 27.908 16.9229 27.4573 16.9229Z" fill="#303336"/>
<path d="M23.6003 8.69434H9.97095C9.22868 8.69434 8.62695 9.29607 8.62695 10.0383V21.6577C8.62695 22.3999 9.22868 23.0017 9.97095 23.0017H23.6003C24.3426 23.0017 24.9443 22.3999 24.9443 21.6577V10.0383C24.9443 9.29607 24.3426 8.69434 23.6003 8.69434Z" fill="white"/>
<path d="M24.7117 7.30165C24.6778 7.30155 24.6438 7.29843 24.6104 7.29232C19.5665 6.27949 14.3716 6.27949 9.32774 7.29232C9.18629 7.31699 9.04084 7.28445 8.92338 7.20187C8.80592 7.11929 8.72607 6.99344 8.70141 6.85199C8.67674 6.71054 8.70928 6.56509 8.79186 6.44763C8.87444 6.33016 9.00029 6.25032 9.14174 6.22565C14.3124 5.1878 19.6378 5.1878 24.8084 6.22565C24.9442 6.24691 25.0668 6.319 25.1514 6.42731C25.2359 6.53562 25.2762 6.67204 25.2639 6.80891C25.2516 6.94578 25.1877 7.07286 25.0851 7.16436C24.9826 7.25586 24.8491 7.30494 24.7117 7.30165Z" fill="#C20016"/>
<path d="M19.7981 6.49608C19.7981 6.49608 20.1128 5.96808 19.4941 2.84741L20.4335 2.33008C20.4335 2.33008 21.1741 4.77741 20.3935 6.58808L19.7981 6.49608Z" fill="#058567"/>
<path d="M20.1309 6.53099C20.5905 4.8447 20.7956 3.09922 20.7395 1.35233L21.9715 1.16699C21.9715 1.16699 21.8989 5.35099 20.6269 6.64633L20.1309 6.53099Z" fill="#058567"/>
<path d="M22.4 2.68652L23.5487 3.03586C23.5487 3.03586 22.3887 6.23586 20.5487 6.77719L20.082 6.50719C21.155 5.44197 21.9509 4.13022 22.4 2.68652Z" fill="#058567"/>
<path d="M18.0449 7.04967C17.4812 8.37297 17.0952 9.76506 16.8969 11.1897C16.6529 12.5897 16.4395 15.109 16.9122 15.285C17.4102 15.4703 19.3689 13.223 19.5915 12.891C20.5515 11.5293 21.3435 10.0567 21.9502 8.50501C22.2835 7.50034 22.1949 6.31167 20.7322 5.75167C19.4915 5.27501 18.5195 6.03101 18.0449 7.04967Z" fill="#FF8000"/>
<path opacity="0.3" d="M21.3724 6.57194C20.415 6.10527 19.9557 7.77194 20.8877 8.18127C21.839 8.59727 22.323 7.03461 21.3724 6.57194Z" fill="white"/>
<path opacity="0.2" d="M18.607 6.22461C18.9451 6.68285 19.4214 7.02051 19.9657 7.18794C20.0079 7.20454 20.0425 7.23621 20.0627 7.27683C20.0829 7.31744 20.0874 7.36412 20.0752 7.40783C20.063 7.45154 20.035 7.48918 19.9967 7.51346C19.9584 7.53774 19.9124 7.54694 19.8677 7.53928C19.8554 7.53719 19.8433 7.53384 19.8317 7.52928C19.2489 7.34651 18.7389 6.98383 18.375 6.49328L18.607 6.22461Z" fill="#303336"/>
<path opacity="0.2" d="M17.7783 7.68457C18.079 8.13464 18.5298 8.46329 19.0503 8.6119C19.0934 8.62789 19.1289 8.65948 19.1498 8.70043C19.1707 8.74138 19.1755 8.78868 19.1632 8.83297C19.1508 8.87726 19.1223 8.9153 19.0833 8.93955C19.0442 8.9638 18.9975 8.9725 18.9523 8.9639C18.9402 8.9619 18.9283 8.95855 18.917 8.9539C17.9556 8.57657 17.7443 8.27057 17.627 8.0819L17.7783 7.68457Z" fill="#303336"/>
<path opacity="0.2" d="M17.1719 9.82245C17.4273 10.0386 17.7214 10.2044 18.0385 10.3111C18.0477 10.3144 18.057 10.3171 18.0665 10.3191C18.1017 10.3247 18.1378 10.3172 18.1678 10.298C18.1978 10.2788 18.2197 10.2492 18.2294 10.2149C18.239 10.1805 18.2357 10.1439 18.22 10.1118C18.2044 10.0798 18.1775 10.0546 18.1445 10.0411C17.8094 9.92345 17.5022 9.73753 17.2425 9.49512L17.1719 9.82245Z" fill="#303336"/>
<path d="M21.2942 10.248H11.2375C11.0708 10.248 10.9355 10.3833 10.9355 10.55V21.7467C10.9355 21.9135 11.0708 22.0487 11.2375 22.0487H21.2942C21.461 22.0487 21.5962 21.9135 21.5962 21.7467V10.55C21.5962 10.3833 21.461 10.248 21.2942 10.248Z" fill="#AD8764"/>
<path d="M22.36 9.4707H12.246C12.095 9.4707 11.9727 9.59308 11.9727 9.74404V21.7887C11.9727 21.9397 12.095 22.062 12.246 22.062H22.36C22.5109 22.062 22.6333 21.9397 22.6333 21.7887V9.74404C22.6333 9.59308 22.5109 9.4707 22.36 9.4707Z" fill="#C7A984"/>
<path d="M19.4933 8.37952H14.6113L15.7607 7.10352H18.6273L19.4933 8.37952Z" fill="#AD8764"/>
<path d="M14.5176 9.83685H15.7456L15.7562 7.10352L14.5176 8.21552V9.83685Z" fill="#C7A984"/>
<path d="M19.8538 9.83685H18.6258L18.6191 7.10352L19.8538 8.21885V9.83685Z" fill="#C7A984"/>
<path d="M15.6721 13.4484L13.6335 15.4204C13.5817 15.4592 13.5397 15.5095 13.5108 15.5673C13.4819 15.6252 13.4668 15.689 13.4668 15.7537C13.4668 15.8184 13.4819 15.8822 13.5108 15.94C13.5397 15.9979 13.5817 16.0482 13.6335 16.087L15.6721 18.0584C15.6767 18.0638 15.6823 18.0682 15.6886 18.0714C15.6949 18.0746 15.7017 18.0765 15.7088 18.077C15.7134 18.0768 15.718 18.0756 15.7222 18.0735C15.7263 18.0714 15.73 18.0685 15.733 18.065C15.736 18.0614 15.7383 18.0573 15.7396 18.0528C15.7409 18.0483 15.7414 18.0436 15.7408 18.039C15.7396 18.0246 15.7332 18.0111 15.7228 18.001C15.1849 17.379 14.8911 16.5827 14.8961 15.7604C14.8912 14.934 15.1847 14.1336 15.7228 13.5064C15.7332 13.4963 15.7396 13.4828 15.7408 13.4684C15.7415 13.4637 15.7411 13.4589 15.7398 13.4544C15.7385 13.4498 15.7363 13.4456 15.7333 13.442C15.7303 13.4383 15.7266 13.4354 15.7224 13.4332C15.7181 13.4311 15.7135 13.4299 15.7088 13.4297C15.7017 13.4302 15.6949 13.4321 15.6886 13.4353C15.6823 13.4385 15.6767 13.4429 15.6721 13.4484Z" fill="#AD8764"/>
<path d="M17.2389 13.2812C16.4389 13.2812 16.1289 14.4146 16.1289 15.7606C16.1289 17.1066 16.4402 18.2273 17.2389 18.2273C17.7176 18.2273 18.1256 17.9466 18.1269 17.7166C18.1271 17.6901 18.1217 17.6638 18.1112 17.6394C18.1006 17.6151 18.0851 17.5932 18.0656 17.5752C17.9726 17.497 17.8966 17.4005 17.8421 17.2919C17.7877 17.1832 17.756 17.0646 17.7489 16.9432C17.75 16.7778 17.8143 16.619 17.9285 16.4993C18.0427 16.3796 18.1984 16.3081 18.3636 16.2993C18.4557 16.3003 18.5465 16.3207 18.6302 16.3591C18.7139 16.3976 18.7886 16.4531 18.8495 16.5223C18.9103 16.5914 18.9559 16.6726 18.9834 16.7605C19.0109 16.8484 19.0196 16.9411 19.0089 17.0326C18.9971 17.3871 18.8753 17.7291 18.6602 18.0112C18.6536 18.0211 18.6501 18.0327 18.6502 18.0446C18.6502 18.0652 18.6622 18.0819 18.6802 18.0819C18.6876 18.0812 18.6947 18.0791 18.7012 18.0757C18.7078 18.0723 18.7135 18.0676 18.7182 18.0619L20.7569 16.0906C20.8088 16.0519 20.8509 16.0016 20.8799 15.9437C20.9089 15.8858 20.924 15.822 20.924 15.7573C20.924 15.6925 20.9089 15.6287 20.8799 15.5708C20.8509 15.5129 20.8088 15.4626 20.7569 15.4239L18.7182 13.4486C18.7135 13.4429 18.7078 13.4382 18.7012 13.4348C18.6947 13.4314 18.6876 13.4293 18.6802 13.4286C18.6622 13.4286 18.6502 13.4453 18.6502 13.4659C18.6501 13.4778 18.6536 13.4894 18.6602 13.4992C18.875 13.7815 18.9968 14.1235 19.0089 14.4779C19.0196 14.5694 19.0109 14.6621 18.9834 14.75C18.9559 14.8379 18.9103 14.9191 18.8495 14.9882C18.7886 15.0574 18.7139 15.1129 18.6302 15.1514C18.5465 15.1898 18.4557 15.2102 18.3636 15.2113C18.1984 15.2024 18.0427 15.1309 17.9285 15.0112C17.8143 14.8915 17.75 14.7327 17.7489 14.5673C17.756 14.4459 17.7877 14.3273 17.8421 14.2186C17.8966 14.11 17.9726 14.0135 18.0656 13.9353C18.085 13.9173 18.1005 13.8956 18.111 13.8714C18.1216 13.8471 18.127 13.821 18.1269 13.7946C18.1269 13.5633 17.7176 13.2826 17.2389 13.2826" fill="#AD8764"/>
</g>
<defs>
<linearGradient id="paint0_linear_1013_44854" x1="6.01792" y1="11.2902" x2="6.03468" y2="14.5788" gradientUnits="userSpaceOnUse">
<stop stop-color="white" stop-opacity="0"/>
<stop offset="1" stop-color="white"/>
</linearGradient>
<linearGradient id="paint1_linear_1013_44854" x1="27.43" y1="11.2902" x2="27.4468" y2="14.5788" gradientUnits="userSpaceOnUse">
<stop stop-color="white" stop-opacity="0"/>
<stop offset="1" stop-color="white"/>
</linearGradient>
<linearGradient id="paint2_linear_1013_44854" x1="7.10621" y1="30.8156" x2="8.18248" y2="19.7135" gradientUnits="userSpaceOnUse">
<stop stop-color="white" stop-opacity="0"/>
<stop offset="1" stop-color="white"/>
</linearGradient>
<linearGradient id="paint3_linear_1013_44854" x1="25.3406" y1="30.8156" x2="26.4169" y2="19.7135" gradientUnits="userSpaceOnUse">
<stop stop-color="white" stop-opacity="0"/>
<stop offset="1" stop-color="white"/>
</linearGradient>
<linearGradient id="paint4_linear_1013_44854" x1="3.69787" y1="21.8649" x2="21.546" y2="11.4522" gradientUnits="userSpaceOnUse">
<stop stop-color="white" stop-opacity="0"/>
<stop offset="1" stop-color="white"/>
</linearGradient>
</defs>
</svg>
